<svg xmlns="http://www.w3.org/2000/svg" viewBox="79 87 626 506">
  <!-- The crane from icon.svg without its tile, for in-app use; keep the two in sync. -->
  <g stroke="#933d22" stroke-width="5" stroke-linejoin="round">
    <polygon points="180,90 320,376 297,391 255,396" fill="#e0805c"/>
    <polygon points="320,376 365,347 387,278 662,125 460,370 402,322 297,391" fill="#eea07c"/>
    <polygon points="662,125 626,395 590,420 470,440 497,400 460,370" fill="#c9653f"/>
    <polygon points="315,530 395,521 445,512 482,478 480,590" fill="#a84d2f"/>
    <polygon points="82,553 255,396 297,391 375,431" fill="#f7c2a4"/>
    <polygon points="82,553 375,431 482,478 445,512 395,521" fill="#e0805c"/>
    <polygon points="297,391 402,322 375,431" fill="#eea07c"/>
    <polygon points="402,322 470,440 482,478 375,431" fill="#e0805c"/>
    <polygon points="402,322 497,400 470,440" fill="#a84d2f"/>
    <polygon points="480,590 630,273 639,272 522,565" fill="#7a331c"/>
    <polygon points="630,273 702,376 639,272" fill="#c9653f"/>
    <polygon points="595,276 702,376 630,273" fill="#f7c2a4"/>
    <polygon points="482,478 470,440 595,276 630,273 480,590" fill="#eea07c"/>
  </g>
</svg>
